<svg fill="none" viewBox="0 0 70 70" class="banner-tile__logo_secondary" aria-label="RiderFlow"><defs><linearGradient id="__JETBRAINS_COM__LOGO_PREFIX__8" x1="16.844" x2="38.664" y1="41.53" y2="64.22" gradientUnits="userSpaceOnUse"><stop offset="0.01" stop-color="#087CFA"></stop><stop offset="0.49" stop-color="#903ACA"></stop><stop offset="0.93" stop-color="#DD1265"></stop></linearGradient><linearGradient id="__JETBRAINS_COM__LOGO_PREFIX__7" x1="42.219" x2="57.684" y1="36.165" y2="8.898" gradientUnits="userSpaceOnUse"><stop offset="0.59" stop-color="#087CFA"></stop><stop offset="0.99" stop-color="#0093FF"></stop></linearGradient><linearGradient id="__JETBRAINS_COM__LOGO_PREFIX__6" x1="30.258" x2="41.726" y1="-0.027" y2="22.717" gradientUnits="userSpaceOnUse"><stop offset="0.21" stop-color="#087CFA"></stop><stop offset="0.7" stop-color="#DD1265"></stop></linearGradient><linearGradient id="__JETBRAINS_COM__LOGO_PREFIX__5" x1="15.176" x2="25.577" y1="3.073" y2="38.511" gradientUnits="userSpaceOnUse"><stop stop-color="#087CFA"></stop><stop offset="0.33" stop-color="#903ACA"></stop><stop offset="0.6" stop-color="#DD1265"></stop></linearGradient><linearGradient id="__JETBRAINS_COM__LOGO_PREFIX__4" x1="81.61" x2="49.892" y1="16.549" y2="52.675" gradientUnits="userSpaceOnUse"><stop offset="0.21" stop-color="#087CFA"></stop><stop offset="0.56" stop-color="#903ACA"></stop><stop offset="0.84" stop-color="#DD1265"></stop></linearGradient><linearGradient id="__JETBRAINS_COM__LOGO_PREFIX__3" x1="58.751" x2="38.795" y1="72.133" y2="45.434" gradientUnits="userSpaceOnUse"><stop offset="0.31" stop-color="#FDB60D"></stop><stop offset="1" stop-color="#DD1265"></stop></linearGradient></defs><path fill="url(#__JETBRAINS_COM__LOGO_PREFIX__8)" d="M50.1977 56.0329L24.3961 70L0 55.7157L44.8438 38.9595L50.1977 56.0329Z"></path><path fill="url(#__JETBRAINS_COM__LOGO_PREFIX__7)" d="M39.9711 0L25.9492 41.5952L11.993 33.8022L0 55.7155L22.3945 52.1389L50.8102 47.1241L70 42.8257V16.7234L39.9711 0Z"></path><path fill="#087CFA" d="M31.7188 24.2484L13.0375 18.8726L11.4844 0L27.2016 6.60623L39.9766 0L31.7188 24.2484Z"></path><path fill="url(#__JETBRAINS_COM__LOGO_PREFIX__6)" d="M32.2655 23.1546L27.2014 6.60623L39.9764 0L32.2655 23.1546Z"></path><path fill="url(#__JETBRAINS_COM__LOGO_PREFIX__5)" d="M48.1742 40.6491L11.5008 0L0 26.2171L32.3805 54.1897L48.1742 40.6491Z"></path><path fill="url(#__JETBRAINS_COM__LOGO_PREFIX__4)" d="M70 42.8259L48.6719 47.7478L49.4867 44.2314L70 16.7236V42.8259Z"></path><path fill="url(#__JETBRAINS_COM__LOGO_PREFIX__3)" d="M58.7944 70.0001L32.3804 54.1955L48.1741 40.6494L58.7944 70.0001Z"></path><path fill="#000" d="M56 14H14V56H56V14Z"></path><path fill="#fff" d="M34.4167 48.6499H18.6667V51.3332H34.4167V48.6499Z"></path><path fill="#fff" d="M19.27 19.25H26.4781C28.4851 19.25 30.0402 19.8121 31.0752 20.8261C31.5297 21.3063 31.8838 21.8725 32.1165 22.4914C32.3493 23.1103 32.4561 23.7694 32.4306 24.4302V24.5037C32.4808 25.5772 32.1768 26.6373 31.5655 27.5211C30.9542 28.4049 30.0693 29.0633 29.0472 29.395L32.9035 35.0112H28.8423L25.4589 29.9624H22.7375V35.0112H19.27V19.25ZM26.2522 26.8889C27.9439 26.8889 28.9106 25.9853 28.9106 24.6561V24.6141C28.9106 23.1273 27.8599 22.3602 26.1892 22.3602H22.7375V26.8889H26.2522Z"></path><path fill="#fff" d="M35.5671 19.25H47.5772V22.4022H39.0399V25.7594H46.5632V28.9116H39.0399V35.0112H35.5671V19.25Z"></path></svg>